<svg width="20" height="20" viewBox="0 0 20 20" fill="none" xmlns="http://www.w3.org/2000/svg">
<path fill-rule="evenodd" clip-rule="evenodd" d="M8.05534 0.388672C3.82116 0.388672 0.388672 3.82116 0.388672 8.05534C0.388672 12.2895 3.82116 15.722 8.05534 15.722C9.81181 15.722 11.4303 15.1313 12.7231 14.1378L18.1815 19.5962C18.572 19.9867 19.2051 19.9867 19.5957 19.5962C19.9862 19.2056 19.9862 18.5725 19.5957 18.1819L14.1373 12.7236C15.1312 11.4308 15.722 9.81206 15.722 8.05534C15.722 3.82116 12.2895 0.388672 8.05534 0.388672ZM2.38867 8.05534C2.38867 4.92572 4.92572 2.38867 8.05534 2.38867C11.185 2.38867 13.722 4.92572 13.722 8.05534C13.722 11.185 11.185 13.722 8.05534 13.722C4.92572 13.722 2.38867 11.185 2.38867 8.05534Z" fill="#A894D1"/>
</svg>
