<svg width="65" height="16" viewBox="0 0 65 16" fill="none" xmlns="http://www.w3.org/2000/svg">
<path fill-rule="evenodd" clip-rule="evenodd" d="M2.11596 0H13.9546C15.1198 0 16.0706 0.941984 16.0706 2.10663V13.8938C16.0706 15.0537 15.1245 15.9997 13.9546 15.9997H2.11596C0.950845 15.9997 0 15.0584 0 13.8938V2.1013C0 0.941985 0.945488 0 2.11596 0Z" fill="#5468FF"/>
<path fill-rule="evenodd" clip-rule="evenodd" d="M9.70999 3.57272V3.02407C9.70984 2.83994 9.63627 2.6634 9.50543 2.53326C9.37459 2.40313 9.1972 2.33004 9.01225 2.33008H7.38577C7.20083 2.33004 7.02344 2.40313 6.8926 2.53326C6.76176 2.6634 6.68818 2.83994 6.68804 3.02407V3.58739C6.68804 3.65006 6.7463 3.69405 6.80991 3.67939C7.27001 3.54713 7.74657 3.48025 8.22546 3.48073C8.6895 3.48073 9.14885 3.54339 9.5928 3.66472C9.65173 3.67939 9.70999 3.63606 9.70999 3.57272ZM5.2524 4.29071L4.97451 4.01405C4.90976 3.94954 4.83288 3.89837 4.74826 3.86346C4.66364 3.82854 4.57294 3.81057 4.48134 3.81057C4.38974 3.81057 4.29905 3.82854 4.21443 3.86346C4.12981 3.89837 4.05292 3.94954 3.98818 4.01405L3.65605 4.34404C3.59112 4.40829 3.5396 4.48469 3.50444 4.56884C3.46927 4.65299 3.45117 4.74323 3.45117 4.83437C3.45117 4.92551 3.46927 5.01575 3.50444 5.0999C3.5396 5.18405 3.59112 5.26044 3.65605 5.32469L3.92925 5.59669C3.97345 5.64002 4.03706 5.63002 4.0759 5.58669C4.23708 5.3663 4.41505 5.15858 4.60824 4.96537C4.80305 4.77076 5.01356 4.59238 5.23767 4.43204C5.28641 4.40271 5.29124 4.33471 5.2524 4.29071ZM8.22064 6.03268V8.40598C8.22064 8.47397 8.2943 8.52264 8.35724 8.48864L10.4766 7.39666C10.5248 7.37266 10.5395 7.314 10.5154 7.266C10.0761 6.49868 9.26054 5.97468 8.3184 5.94068C8.26952 5.94068 8.22064 5.97935 8.22064 6.03268ZM8.22064 11.7499C6.45354 11.7499 5.0179 10.3226 5.0179 8.56597C5.0179 6.80934 6.45354 5.38269 8.22064 5.38269C9.98841 5.38269 11.4235 6.80934 11.4235 8.56597C11.4235 10.3226 9.99323 11.7499 8.22064 11.7499ZM8.22064 4.04338C5.71095 4.04338 3.67534 6.06735 3.67534 8.56597C3.67534 11.0653 5.71095 13.0846 8.22064 13.0846C10.7303 13.0846 12.7659 11.0606 12.7659 8.56131C12.7659 6.06202 10.735 4.04338 8.22064 4.04338Z" fill="white"/>
<path fill-rule="evenodd" clip-rule="evenodd" d="M32.036 12.6905C28.9069 12.7051 28.9069 10.1765 28.9069 9.77384L28.9015 0.301329L30.8104 0V9.41451C30.8104 9.64317 30.8105 11.0891 32.0358 11.0938V12.6905H32.036ZM24.298 11.1425C24.8837 11.1425 25.3185 11.1085 25.6211 11.0505V9.11918C25.47 9.07918 25.3166 9.04823 25.1618 9.02652C24.942 8.99408 24.7202 8.97781 24.498 8.97785C24.2878 8.97785 24.0728 8.99252 23.8586 9.02652C23.6436 9.05585 23.4481 9.11385 23.2773 9.19651C23.1066 9.27918 22.9646 9.39584 22.8622 9.54584C22.7551 9.6965 22.7062 9.78384 22.7062 10.0118C22.7062 10.4578 22.8622 10.7158 23.1454 10.8852C23.4287 11.0551 23.8144 11.1425 24.298 11.1425ZM24.1319 4.25126C24.7613 4.25126 25.2935 4.32926 25.7234 4.48459C26.1528 4.63992 26.4996 4.85792 26.7533 5.13458C27.0124 5.41591 27.1879 5.7899 27.2951 6.1879C27.4076 6.58589 27.4612 7.02255 27.4612 7.50254V12.3851C27.1686 12.4478 26.7238 12.5205 26.1287 12.6078C25.5333 12.6951 24.8645 12.7391 24.1217 12.7391C23.6289 12.7391 23.1749 12.6905 22.7698 12.5985C22.3593 12.5065 22.0131 12.3558 21.7198 12.1471C21.4319 11.9385 21.2076 11.6711 21.0415 11.3418C20.8802 11.0111 20.7971 10.5458 20.7971 10.0605C20.7971 9.59451 20.8895 9.29851 21.071 8.97785C21.2558 8.65786 21.5049 8.39586 21.8176 8.19186C22.135 7.98787 22.4959 7.84254 22.9111 7.7552C23.3262 7.66787 23.7608 7.62387 24.2094 7.62387C24.4197 7.62387 24.6393 7.63854 24.8737 7.66254C25.1034 7.6872 25.3525 7.7312 25.6163 7.79387V7.48321C25.6163 7.26521 25.5915 7.05655 25.5379 6.86255C25.4865 6.67137 25.3929 6.49398 25.2641 6.34323C25.1322 6.19256 24.9621 6.0759 24.7471 5.9939C24.5322 5.91123 24.2583 5.8479 23.9316 5.8479C23.4923 5.8479 23.0919 5.90123 22.7256 5.96457C22.3593 6.02723 22.0567 6.10057 21.827 6.18256L21.598 4.62526C21.837 4.54259 22.1933 4.45993 22.6526 4.37793C23.1113 4.28993 23.6048 4.25126 24.1318 4.25126H24.1319ZM61.8322 11.0892C62.4181 11.0892 62.852 11.0552 63.1547 10.9965V9.06585C63.0476 9.03652 62.8962 9.00252 62.696 8.97318C62.4761 8.94075 62.2541 8.92449 62.0318 8.92452C61.8222 8.92452 61.6072 8.93918 61.3923 8.97318C61.178 9.00252 60.9825 9.06052 60.8117 9.14318C60.6403 9.22585 60.499 9.34251 60.3966 9.49251C60.2888 9.64317 60.2406 9.7305 60.2406 9.9585C60.2406 10.4045 60.3966 10.6625 60.6798 10.8318C60.9678 11.0065 61.3488 11.0892 61.8322 11.0892ZM61.6708 4.20326C62.3003 4.20326 62.8325 4.2806 63.2624 4.43593C63.6916 4.59126 64.0384 4.80925 64.2922 5.08592C64.546 5.36258 64.7268 5.74124 64.8339 6.13923C64.9464 6.53723 65 6.97388 65 7.45454V12.3365C64.7074 12.3991 64.2628 12.4718 63.6675 12.5598C63.0722 12.6471 62.4033 12.6905 61.6607 12.6905C61.1678 12.6905 60.7138 12.6418 60.3089 12.5498C59.8984 12.4578 59.5522 12.3071 59.2589 12.0985C58.971 11.8898 58.7467 11.6225 58.5806 11.2931C58.4192 10.9632 58.3362 10.4972 58.3362 10.0118C58.3362 9.54584 58.4293 9.24985 58.6101 8.92918C58.7949 8.60919 59.044 8.3472 59.3567 8.1432C59.6741 7.93987 60.035 7.79387 60.4501 7.70654C60.8653 7.61921 61.2999 7.57587 61.7492 7.57587C61.9588 7.57587 62.1784 7.59054 62.4128 7.61454C62.6471 7.63854 62.8915 7.68254 63.1547 7.74587V7.43521C63.1547 7.21655 63.1306 7.00788 63.077 6.81389C63.0257 6.62265 62.9321 6.44523 62.8032 6.29456C62.6712 6.1439 62.5012 6.02723 62.2862 5.94524C62.0711 5.86257 61.7974 5.7999 61.4706 5.7999C61.0314 5.7999 60.6309 5.85324 60.2647 5.9159C59.8984 5.97923 59.5957 6.0519 59.3661 6.13457L59.137 4.57659C59.3761 4.49393 59.7323 4.41193 60.1917 4.32926C60.6504 4.2466 61.1432 4.20326 61.6708 4.20326ZM55.939 3.30061C56.5783 3.30061 57.1014 2.78595 57.1014 2.14996C57.1014 1.51464 56.5837 0.999982 55.939 0.999982C55.2948 0.999982 54.7772 1.51464 54.7772 2.14996C54.7772 2.78595 55.2995 3.30061 55.939 3.30061ZM56.9006 12.6905H54.982V4.49859L56.9004 4.19793V12.6905H56.9006ZM53.537 12.6905C50.4079 12.7051 50.4079 10.1765 50.4079 9.77384L50.4025 0.301329L52.3116 0V9.41451C52.3116 9.64317 52.3116 11.0891 53.537 11.0938V12.6905ZM47.3317 8.49786C47.3317 7.67721 47.1509 6.99322 46.7995 6.51789C46.448 6.03723 45.9551 5.7999 45.325 5.7999C44.6956 5.7999 44.202 6.03723 43.8511 6.51789C43.4995 6.99788 43.3282 7.67721 43.3282 8.49786C43.3282 9.32784 43.5044 9.88517 43.8559 10.3658C44.2074 10.8512 44.7003 11.0892 45.3304 11.0892C45.9598 11.0892 46.4533 10.8465 46.8049 10.3658C47.1563 9.8805 47.3317 9.32784 47.3317 8.49786ZM49.2843 8.49319C49.2843 9.13385 49.1919 9.61851 49.0012 10.1478C48.811 10.6765 48.5425 11.1278 48.1963 11.5018C47.8494 11.8751 47.4343 12.1665 46.946 12.3705C46.458 12.5738 45.7059 12.6905 45.3302 12.6905C44.9539 12.6858 44.2073 12.5791 43.7239 12.3705C43.2404 12.1618 42.8252 11.8751 42.4791 11.5018C42.1322 11.1278 41.8638 10.6765 41.6683 10.1478C41.4733 9.61851 41.3757 9.13385 41.3757 8.49319C41.3757 7.85254 41.4633 7.23588 41.6588 6.71189C41.8543 6.1879 42.1275 5.74124 42.4791 5.36791C42.8306 4.99392 43.2504 4.70725 43.7285 4.50392C44.212 4.29993 44.7443 4.20326 45.3202 4.20326C45.8967 4.20326 46.4284 4.30459 46.9165 4.50392C47.4054 4.70725 47.8253 4.99392 48.1668 5.36791C48.5129 5.74124 48.7815 6.1879 48.9771 6.71189C49.182 7.23588 49.2844 7.85254 49.2844 8.49319H49.2843ZM34.9166 8.49319C34.9166 9.28851 35.0921 10.1718 35.4436 10.5405C35.7952 10.9098 36.249 11.0938 36.8063 11.0938C37.1089 11.0938 37.3969 11.0505 37.6652 10.9678C37.9337 10.8852 38.1482 10.7878 38.3196 10.6718V5.9599C38.183 5.93057 37.6117 5.8139 37.0594 5.7999C36.3663 5.7799 35.8393 6.0619 35.4684 6.51256C35.102 6.96455 34.9166 7.75521 34.9166 8.49319ZM40.2233 12.2391C40.2233 13.5351 39.8911 14.4811 39.2221 15.0831C38.5538 15.6844 37.5333 15.9857 36.1566 15.9857C35.6537 15.9857 34.6091 15.8884 33.7741 15.7044L34.0815 14.1998C34.7799 14.3451 35.7026 14.3844 36.1861 14.3844C36.9521 14.3844 37.4992 14.2291 37.8259 13.9184C38.1534 13.6078 38.3141 13.1471 38.3141 12.5351V12.2245C38.1239 12.3165 37.8748 12.4091 37.5675 12.5065C37.2601 12.5985 36.9039 12.6471 36.5028 12.6471C35.9758 12.6471 35.497 12.5645 35.0631 12.3991C34.6286 12.2345 34.2522 11.9918 33.9449 11.6711C33.6375 11.3511 33.3931 10.9485 33.2224 10.4678C33.0516 9.98717 32.9632 9.12851 32.9632 8.49786C32.9632 7.90587 33.0563 7.16321 33.2372 6.66789C33.4226 6.17323 33.6859 5.7459 34.0427 5.39191C34.3943 5.03792 34.8241 4.76592 35.327 4.56659C35.8298 4.36793 36.4198 4.24193 37.0592 4.24193C37.68 4.24193 38.2511 4.31926 38.8076 4.41193C39.364 4.50393 39.8374 4.60059 40.2231 4.70726V12.2391H40.2233Z" fill="#5468FF"/>
</svg>
